<svg width="1100" height="820" viewBox="0 0 1100 820" xmlns="http://www.w3.org/2000/svg" font-family="Segoe UI, Arial, sans-serif">

  <!-- Background -->
  <rect width="1100" height="820" fill="#f0f4f8" rx="8"/>

  <!-- Title -->
  <text x="550" y="38" text-anchor="middle" font-size="20" font-weight="bold" fill="#0078d4">Azure AI Landing Zone — Architecture</text>
  <text x="550" y="58" text-anchor="middle" font-size="12" fill="#555">Hub-Spoke | Private Endpoints | Terraform Managed | Peering via setup-peering.ps1</text>

  <!-- ═══════════════════════════════════════════════════ -->
  <!-- SPOKE SUBSCRIPTION BOX -->
  <!-- ═══════════════════════════════════════════════════ -->
  <rect x="20" y="70" width="820" height="720" rx="10" fill="none" stroke="#0078d4" stroke-width="2" stroke-dasharray="8,4"/>
  <rect x="20" y="70" width="200" height="24" rx="4" fill="#0078d4"/>
  <text x="30" y="86" font-size="12" fill="white" font-weight="bold">AI Landing Zone Subscription (Spoke)</text>

  <!-- ─── Resource Group ─── -->
  <rect x="35" y="102" width="790" height="680" rx="8" fill="none" stroke="#00b294" stroke-width="1.5" stroke-dasharray="5,3"/>
  <rect x="35" y="102" width="220" height="20" rx="3" fill="#00b294"/>
  <text x="44" y="116" font-size="11" fill="white">rg-ailz-prod-cc  (Resource Group)</text>

  <!-- ─── VNET Box ─── -->
  <rect x="48" y="130" width="560" height="540" rx="8" fill="#e8f4fd" stroke="#0078d4" stroke-width="1.5"/>
  <rect x="48" y="130" width="265" height="20" rx="3" fill="#0078d4"/>
  <text x="56" y="144" font-size="11" fill="white" font-weight="bold">VNET  10.226.214.192/26  (64 IPs: .192 to .255)</text>

  <!-- Subnet: Machine Learning -->
  <rect x="60" y="158" width="255" height="128" rx="6" fill="#dff6dd" stroke="#107c10" stroke-width="1.5"/>
  <rect x="60" y="158" width="255" height="18" rx="3" fill="#107c10"/>
  <text x="68" y="170" font-size="10" fill="white" font-weight="bold">machine-learning  10.226.214.192/28</text>
  <text x="68" y="188" font-size="9" fill="#555">Range: .192 to .207  (14 usable IPs)</text>
  <text x="70" y="204" font-size="10" fill="#333">AML Compute Clusters</text>
  <text x="70" y="219" font-size="10" fill="#333">Training Job Containers</text>
  <text x="70" y="234" font-size="10" fill="#333">Inference Endpoints</text>
  <text x="70" y="249" font-size="9" fill="#888">NSG: Deny Internet inbound/outbound</text>
  <text x="70" y="263" font-size="9" fill="#888">Allow: AML, Batch, Storage, KV tags</text>
  <text x="70" y="277" font-size="9" fill="#888">PE network policies: Enabled</text>

  <!-- Subnet: Private Endpoints -->
  <rect x="328" y="158" width="267" height="128" rx="6" fill="#fff4ce" stroke="#f7630c" stroke-width="1.5"/>
  <rect x="328" y="158" width="267" height="18" rx="3" fill="#f7630c"/>
  <text x="336" y="170" font-size="10" fill="white" font-weight="bold">private-endpoints  10.226.214.208/28</text>
  <text x="336" y="188" font-size="9" fill="#555">Range: .208 to .223  (14 usable IPs)</text>
  <text x="338" y="204" font-size="10" fill="#333">Key Vault PE</text>
  <text x="338" y="218" font-size="10" fill="#333">Storage blob / file / dfs PE</text>
  <text x="338" y="232" font-size="10" fill="#333">Container Registry PE</text>
  <text x="338" y="246" font-size="10" fill="#333">AML Workspace + Notebooks PE</text>
  <text x="338" y="260" font-size="10" fill="#333">OpenAI / Cognitive Services PE</text>
  <text x="338" y="275" font-size="9" fill="#888">PE network policies: Disabled</text>

  <!-- Subnet: Databricks Public -->
  <rect x="60" y="298" width="255" height="88" rx="6" fill="#f3e8ff" stroke="#8764b8" stroke-width="1.5"/>
  <rect x="60" y="298" width="255" height="18" rx="3" fill="#8764b8"/>
  <text x="68" y="310" font-size="10" fill="white" font-weight="bold">databricks-public  10.226.214.224/28</text>
  <text x="68" y="328" font-size="9" fill="#555">Range: .224 to .239  (14 usable IPs)</text>
  <text x="70" y="344" font-size="10" fill="#333">Reserved - Future Azure Databricks</text>
  <text x="70" y="359" font-size="9" fill="#888">Service endpoints: Microsoft.Storage</text>
  <text x="70" y="374" font-size="9" fill="#888">16 IPs pre-allocated</text>

  <!-- Subnet: Databricks Private -->
  <rect x="328" y="298" width="267" height="88" rx="6" fill="#fce8e8" stroke="#d13438" stroke-width="1.5"/>
  <rect x="328" y="298" width="267" height="18" rx="3" fill="#d13438"/>
  <text x="336" y="310" font-size="10" fill="white" font-weight="bold">databricks-private  10.226.214.240/28</text>
  <text x="336" y="328" font-size="9" fill="#555">Range: .240 to .255  (14 usable IPs)</text>
  <text x="338" y="344" font-size="10" fill="#333">Reserved - Future Azure Databricks</text>
  <text x="338" y="359" font-size="9" fill="#888">Service endpoints: Microsoft.Storage</text>
  <text x="338" y="374" font-size="9" fill="#888">16 IPs pre-allocated</text>

  <!-- VNET Peering callout arrow -->
  <line x1="305" y1="562" x2="305" y2="648" stroke="#0078d4" stroke-width="2" stroke-dasharray="5,3" marker-end="url(#arrowBlue)"/>
  <rect x="90" y="572" width="224" height="34" rx="4" fill="#fff3e0" stroke="#f0a500" stroke-width="1.5"/>
  <text x="202" y="586" text-anchor="middle" font-size="9" fill="#b8500a" font-weight="bold">VNET Peering - separate step</text>
  <text x="202" y="599" text-anchor="middle" font-size="9" fill="#b8500a">Run: scripts\setup-peering.ps1</text>

  <!-- ─── AI/ML Services Row ─── -->
  <rect x="48" y="400" width="560" height="262" rx="6" fill="#f8fbff" stroke="#0078d4" stroke-width="1"/>
  <text x="56" y="418" font-size="11" fill="#0078d4" font-weight="bold">AI / ML Services  (all via Private Endpoints - subnet .208/28)</text>

  <!-- AML -->
  <rect x="60" y="425" width="110" height="84" rx="5" fill="white" stroke="#0078d4" stroke-width="1.5"/>
  <text x="115" y="444" text-anchor="middle" font-size="9" font-weight="bold" fill="#0078d4">Azure ML</text>
  <text x="115" y="456" text-anchor="middle" font-size="9" fill="#0078d4">Workspace</text>
  <text x="115" y="470" text-anchor="middle" font-size="8" fill="#555">mlw-ailz-prod-cc</text>
  <text x="115" y="482" text-anchor="middle" font-size="8" fill="#555">Private Mode</text>
  <text x="115" y="494" text-anchor="middle" font-size="8" fill="#555">System MI</text>
  <text x="115" y="506" text-anchor="middle" font-size="8" fill="#888">PE: .208/28</text>

  <!-- OpenAI -->
  <rect x="182" y="425" width="110" height="84" rx="5" fill="white" stroke="#7a43b6" stroke-width="1.5"/>
  <text x="237" y="444" text-anchor="middle" font-size="9" font-weight="bold" fill="#7a43b6">Azure OpenAI</text>
  <text x="237" y="458" text-anchor="middle" font-size="8" fill="#555">oai-ailz-prod-cc</text>
  <text x="237" y="471" text-anchor="middle" font-size="8" fill="#555">GPT-4 / Embed</text>
  <text x="237" y="484" text-anchor="middle" font-size="8" fill="#555">Optional module</text>
  <text x="237" y="497" text-anchor="middle" font-size="8" fill="#888">PE: .208/28</text>
  <text x="237" y="507" text-anchor="middle" font-size="8" fill="#888">(deploy_openai)</text>

  <!-- Cognitive Services -->
  <rect x="304" y="425" width="110" height="84" rx="5" fill="white" stroke="#00b294" stroke-width="1.5"/>
  <text x="359" y="441" text-anchor="middle" font-size="9" font-weight="bold" fill="#00b294">Cognitive</text>
  <text x="359" y="453" text-anchor="middle" font-size="9" font-weight="bold" fill="#00b294">Services</text>
  <text x="359" y="467" text-anchor="middle" font-size="8" fill="#555">cog-ailz-prod-cc</text>
  <text x="359" y="480" text-anchor="middle" font-size="8" fill="#555">Optional module</text>
  <text x="359" y="493" text-anchor="middle" font-size="8" fill="#888">PE: .208/28</text>
  <text x="359" y="507" text-anchor="middle" font-size="8" fill="#888">(deploy_cog_svc)</text>

  <!-- Storage -->
  <rect x="426" y="425" width="110" height="84" rx="5" fill="white" stroke="#106ebe" stroke-width="1.5"/>
  <text x="481" y="444" text-anchor="middle" font-size="9" font-weight="bold" fill="#106ebe">Storage</text>
  <text x="481" y="456" text-anchor="middle" font-size="9" fill="#106ebe">ADLS Gen2</text>
  <text x="481" y="470" text-anchor="middle" font-size="8" fill="#555">stailzprodcc</text>
  <text x="481" y="482" text-anchor="middle" font-size="8" fill="#555">GRS / HTTPS</text>
  <text x="481" y="494" text-anchor="middle" font-size="8" fill="#555">HNS Enabled</text>
  <text x="481" y="506" text-anchor="middle" font-size="8" fill="#888">PE: .208/28</text>

  <!-- Key Vault -->
  <rect x="60" y="522" width="110" height="84" rx="5" fill="white" stroke="#ffd700" stroke-width="1.5"/>
  <text x="115" y="541" text-anchor="middle" font-size="9" font-weight="bold" fill="#b8860b">Key Vault</text>
  <text x="115" y="555" text-anchor="middle" font-size="8" fill="#555">kv-ailz-prod-cc</text>
  <text x="115" y="568" text-anchor="middle" font-size="8" fill="#555">RBAC Auth</text>
  <text x="115" y="581" text-anchor="middle" font-size="8" fill="#555">Purge Protected</text>
  <text x="115" y="594" text-anchor="middle" font-size="8" fill="#555">90-day soft-delete</text>
  <text x="115" y="604" text-anchor="middle" font-size="8" fill="#888">PE: .208/28</text>

  <!-- Container Registry -->
  <rect x="182" y="522" width="110" height="84" rx="5" fill="white" stroke="#e81123" stroke-width="1.5"/>
  <text x="237" y="539" text-anchor="middle" font-size="9" font-weight="bold" fill="#e81123">Container</text>
  <text x="237" y="551" text-anchor="middle" font-size="9" font-weight="bold" fill="#e81123">Registry</text>
  <text x="237" y="565" text-anchor="middle" font-size="8" fill="#555">acrailzprodcc</text>
  <text x="237" y="578" text-anchor="middle" font-size="8" fill="#555">Premium SKU</text>
  <text x="237" y="591" text-anchor="middle" font-size="8" fill="#555">Admin Disabled</text>
  <text x="237" y="604" text-anchor="middle" font-size="8" fill="#888">PE: .208/28</text>

  <!-- App Insights -->
  <rect x="304" y="522" width="110" height="84" rx="5" fill="white" stroke="#7519b5" stroke-width="1.5"/>
  <text x="359" y="539" text-anchor="middle" font-size="9" font-weight="bold" fill="#7519b5">Application</text>
  <text x="359" y="551" text-anchor="middle" font-size="9" font-weight="bold" fill="#7519b5">Insights</text>
  <text x="359" y="565" text-anchor="middle" font-size="8" fill="#555">appi-ailz-prod-cc</text>
  <text x="359" y="578" text-anchor="middle" font-size="8" fill="#555">Linked to LAW</text>
  <text x="359" y="591" text-anchor="middle" font-size="8" fill="#555">AML Telemetry</text>
  <text x="359" y="604" text-anchor="middle" font-size="8" fill="#888">No PE required</text>

  <!-- Log Analytics -->
  <rect x="426" y="522" width="110" height="84" rx="5" fill="white" stroke="#0078d4" stroke-width="1.5"/>
  <text x="481" y="539" text-anchor="middle" font-size="9" font-weight="bold" fill="#0078d4">Log Analytics</text>
  <text x="481" y="553" text-anchor="middle" font-size="8" fill="#555">law-ailz-prod-cc</text>
  <text x="481" y="566" text-anchor="middle" font-size="8" fill="#555">90-day retention</text>
  <text x="481" y="579" text-anchor="middle" font-size="8" fill="#555">Private ingestion</text>
  <text x="481" y="592" text-anchor="middle" font-size="8" fill="#555">All diag to LAW</text>
  <text x="481" y="604" text-anchor="middle" font-size="8" fill="#888">PerGB2018 SKU</text>

  <!-- ─── Governance & Observability column ─── -->
  <rect x="625" y="130" width="188" height="430" rx="8" fill="#f8f8f8" stroke="#555" stroke-width="1.5"/>
  <rect x="625" y="130" width="188" height="20" rx="3" fill="#555"/>
  <text x="633" y="144" font-size="11" fill="white" font-weight="bold">Governance and Observability</text>

  <!-- Policy -->
  <rect x="635" y="158" width="168" height="100" rx="5" fill="#fff3cd" stroke="#f0a500" stroke-width="1.5"/>
  <text x="719" y="175" text-anchor="middle" font-size="10" font-weight="bold" fill="#c87800">Azure Policy</text>
  <text x="645" y="193" font-size="9" fill="#555">Allowed Locations only:</text>
  <text x="645" y="206" font-size="9" fill="#555">  canadacentral / canadaeast</text>
  <text x="645" y="219" font-size="9" fill="#555">  eastus / eastus2</text>
  <text x="645" y="232" font-size="9" fill="#555">Require HTTPS on Storage</text>
  <text x="645" y="245" font-size="9" fill="#555">KV Purge Protection required</text>
  <text x="645" y="257" font-size="9" fill="#555">Deny AML Public Access</text>

  <!-- Monitor -->
  <rect x="635" y="268" width="168" height="88" rx="5" fill="#dff6dd" stroke="#107c10" stroke-width="1.5"/>
  <text x="719" y="285" text-anchor="middle" font-size="10" font-weight="bold" fill="#107c10">Azure Monitor</text>
  <text x="645" y="302" font-size="9" fill="#555">Metric alert rules</text>
  <text x="645" y="316" font-size="9" fill="#555">Log alert queries</text>
  <text x="645" y="330" font-size="9" fill="#555">Email action group</text>
  <text x="645" y="344" font-size="9" fill="#555">Activity Log forwarded to LAW</text>

  <!-- RBAC -->
  <rect x="635" y="366" width="168" height="100" rx="5" fill="#fce8e8" stroke="#d13438" stroke-width="1.5"/>
  <text x="719" y="383" text-anchor="middle" font-size="10" font-weight="bold" fill="#d13438">RBAC Assignments</text>
  <text x="645" y="400" font-size="9" fill="#555">Platform Engineers</text>
  <text x="645" y="412" font-size="9" fill="#555">  Contributor on RG</text>
  <text x="645" y="425" font-size="9" fill="#555">Data Scientists</text>
  <text x="645" y="437" font-size="9" fill="#555">  AzureML Data Scientist</text>
  <text x="645" y="450" font-size="9" fill="#555">  Storage Blob Contributor</text>
  <text x="645" y="463" font-size="9" fill="#555">See docs\roles.md for all groups</text>

  <!-- Peering script callout -->
  <rect x="625" y="476" width="188" height="84" rx="8" fill="#fff3e0" stroke="#f0a500" stroke-width="2"/>
  <rect x="625" y="476" width="188" height="20" rx="3" fill="#f0a500"/>
  <text x="719" y="490" text-anchor="middle" font-size="10" fill="white" font-weight="bold">Hub-Spoke Peering</text>
  <text x="635" y="508" font-size="9" fill="#555">Run AFTER terraform apply:</text>
  <text x="635" y="521" font-size="9" fill="#8b5000" font-weight="bold">.\scripts\setup-peering.ps1</text>
  <text x="635" y="534" font-size="9" fill="#555">Requires Az PowerShell module</text>
  <text x="635" y="547" font-size="9" fill="#555">+ Network Contributor on hub VNet</text>

  <!-- ═══════════════════════════════════════════════════ -->
  <!-- HUB NETWORK (Separate Subscription) -->
  <!-- ═══════════════════════════════════════════════════ -->
  <rect x="20" y="665" width="820" height="125" rx="10" fill="none" stroke="#e81123" stroke-width="2" stroke-dasharray="8,4"/>
  <rect x="20" y="665" width="238" height="22" rx="4" fill="#e81123"/>
  <text x="30" y="680" font-size="12" fill="white" font-weight="bold">Hub Network Subscription (Existing - Not Deployed)</text>

  <rect x="42" y="694" width="162" height="84" rx="5" fill="white" stroke="#e81123" stroke-width="1.5"/>
  <text x="123" y="711" text-anchor="middle" font-size="10" font-weight="bold" fill="#e81123">Azure Firewall</text>
  <text x="52" y="727" font-size="9" fill="#555">Force-tunnel spoke egress</text>
  <text x="52" y="741" font-size="9" fill="#555">IDPS / TLS inspection</text>
  <text x="52" y="755" font-size="9" fill="#555">Hub DNS resolver IP used as</text>
  <text x="52" y="769" font-size="9" fill="#888">  spoke dns_servers variable</text>

  <rect x="216" y="694" width="200" height="84" rx="5" fill="white" stroke="#e81123" stroke-width="1.5"/>
  <text x="316" y="711" text-anchor="middle" font-size="10" font-weight="bold" fill="#e81123">Private DNS Zones (hub-hosted)</text>
  <text x="226" y="727" font-size="9" fill="#555">privatelink.vaultcore.azure.net</text>
  <text x="226" y="741" font-size="9" fill="#555">privatelink.blob.core.windows.net</text>
  <text x="226" y="755" font-size="9" fill="#555">privatelink.azurecr.io</text>
  <text x="226" y="769" font-size="9" fill="#555">privatelink.api.azureml.ms  (+more)</text>

  <rect x="428" y="694" width="180" height="84" rx="5" fill="white" stroke="#e81123" stroke-width="1.5"/>
  <text x="518" y="711" text-anchor="middle" font-size="10" font-weight="bold" fill="#e81123">Hub VNET</text>
  <text x="438" y="727" font-size="9" fill="#555">ExpressRoute / VPN Gateway</text>
  <text x="438" y="741" font-size="9" fill="#555">Peered to spoke via PS1 script</text>
  <text x="438" y="755" font-size="9" fill="#555">Spoke egress routes via hub FW</text>
  <text x="438" y="769" font-size="9" fill="#888">UDR: 0.0.0.0/0 to FW private IP</text>

  <rect x="620" y="694" width="188" height="84" rx="5" fill="white" stroke="#555" stroke-width="1.5"/>
  <text x="714" y="711" text-anchor="middle" font-size="10" font-weight="bold" fill="#555">Terraform State Storage</text>
  <text x="630" y="727" font-size="9" fill="#555">sttfstateprodcc  (bootstrap.sh)</text>
  <text x="630" y="741" font-size="9" fill="#555">GRS | Versioned | HTTPS-only</text>
  <text x="630" y="755" font-size="9" fill="#555">rg-tfstate-prod-cc</text>
  <text x="630" y="769" font-size="9" fill="#888">backend.hcl used by terraform init</text>

  <!-- ═══════════════════════════════════════════════════ -->
  <!-- LEGEND -->
  <!-- ═══════════════════════════════════════════════════ -->
  <rect x="855" y="70" width="230" height="720" rx="8" fill="white" stroke="#ccc" stroke-width="1"/>
  <rect x="855" y="70" width="230" height="22" rx="4" fill="#333"/>
  <text x="970" y="85" text-anchor="middle" font-size="12" fill="white" font-weight="bold">Legend</text>

  <rect x="865" y="102" width="20" height="12" fill="#0078d4" rx="2"/>
  <text x="892" y="113" font-size="10" fill="#333">Azure Service / Resource</text>

  <rect x="865" y="122" width="20" height="12" fill="none" stroke="#0078d4" stroke-width="2" stroke-dasharray="4,2" rx="2"/>
  <text x="892" y="133" font-size="10" fill="#333">Subscription Boundary</text>

  <rect x="865" y="142" width="20" height="12" fill="#107c10" rx="2"/>
  <text x="892" y="153" font-size="10" fill="#333">Subnet (peering policies On)</text>

  <rect x="865" y="162" width="20" height="12" fill="#f7630c" rx="2"/>
  <text x="892" y="173" font-size="10" fill="#333">Private Endpoints Subnet</text>

  <line x1="865" y1="190" x2="885" y2="190" stroke="#0078d4" stroke-width="2" stroke-dasharray="4,2" marker-end="url(#arrowBlue)"/>
  <text x="892" y="195" font-size="10" fill="#333">VNET Peering (PS1 script)</text>

  <!-- IP Reference Table -->
  <line x1="865" y1="205" x2="1075" y2="205" stroke="#ddd" stroke-width="1"/>
  <text x="865" y="220" font-size="11" fill="#333" font-weight="bold">IP Address Reference</text>
  <text x="865" y="235" font-size="9" fill="#555" font-weight="bold">VNET:  10.226.214.192/26</text>
  <text x="865" y="248" font-size="9" fill="#555">       .192 to .255  (64 total IPs)</text>

  <line x1="865" y1="255" x2="1075" y2="255" stroke="#eee" stroke-width="1"/>
  <text x="865" y="268" font-size="9" fill="#107c10" font-weight="bold">machine-learning     /28</text>
  <text x="865" y="280" font-size="9" fill="#555">10.226.214.192 to .207</text>

  <line x1="865" y1="287" x2="1075" y2="287" stroke="#eee" stroke-width="1"/>
  <text x="865" y="300" font-size="9" fill="#f7630c" font-weight="bold">private-endpoints    /28</text>
  <text x="865" y="312" font-size="9" fill="#555">10.226.214.208 to .223</text>

  <line x1="865" y1="319" x2="1075" y2="319" stroke="#eee" stroke-width="1"/>
  <text x="865" y="332" font-size="9" fill="#8764b8" font-weight="bold">databricks-public    /28</text>
  <text x="865" y="344" font-size="9" fill="#555">10.226.214.224 to .239</text>

  <line x1="865" y1="351" x2="1075" y2="351" stroke="#eee" stroke-width="1"/>
  <text x="865" y="364" font-size="9" fill="#d13438" font-weight="bold">databricks-private   /28</text>
  <text x="865" y="376" font-size="9" fill="#555">10.226.214.240 to .255</text>

  <!-- Module list -->
  <line x1="865" y1="384" x2="1075" y2="384" stroke="#ddd" stroke-width="1"/>
  <text x="865" y="399" font-size="11" fill="#333" font-weight="bold">Terraform Modules</text>
  <text x="865" y="415" font-size="10" fill="#555">On  resource_group</text>
  <text x="865" y="430" font-size="10" fill="#555">On  networking (spoke only)</text>
  <text x="865" y="445" font-size="10" fill="#555">On  nsg</text>
  <text x="865" y="460" font-size="10" fill="#555">On  policy</text>
  <text x="865" y="475" font-size="10" fill="#555">On  log_analytics</text>
  <text x="865" y="490" font-size="10" fill="#555">On  application_insights</text>
  <text x="865" y="505" font-size="10" fill="#555">On  key_vault</text>
  <text x="865" y="520" font-size="10" fill="#555">On  storage</text>
  <text x="865" y="535" font-size="10" fill="#555">On  container_registry</text>
  <text x="865" y="550" font-size="10" fill="#555">On  machine_learning</text>
  <text x="865" y="565" font-size="10" fill="#555">Opt cognitive_services</text>
  <text x="865" y="580" font-size="10" fill="#555">Opt openai</text>
  <text x="865" y="595" font-size="10" fill="#555">On  monitor</text>
  <text x="865" y="610" font-size="10" fill="#555">On  rbac</text>
  <text x="865" y="628" font-size="9" fill="#888">On = enabled by default</text>
  <text x="865" y="641" font-size="9" fill="#888">Opt = set deploy_x = true in tfvars</text>

  <line x1="865" y1="649" x2="1075" y2="649" stroke="#ddd" stroke-width="1"/>
  <text x="865" y="664" font-size="11" fill="#333" font-weight="bold">Peering - Separate Script</text>
  <text x="865" y="679" font-size="9" fill="#555">Hub peering NOT managed by</text>
  <text x="865" y="692" font-size="9" fill="#555">Terraform. Run PS1 script after</text>
  <text x="865" y="705" font-size="9" fill="#555">terraform apply completes.</text>
  <text x="865" y="718" font-size="9" fill="#555">Needs Az PowerShell module and</text>
  <text x="865" y="731" font-size="9" fill="#555">Network Contributor on hub VNet.</text>

  <line x1="865" y1="740" x2="1075" y2="740" stroke="#ddd" stroke-width="1"/>
  <text x="865" y="754" font-size="9" fill="#888">github.com/Azure/AI-Landing-Zones</text>
  <text x="865" y="767" font-size="9" fill="#888">Terraform greater than or equal to 1.5</text>
  <text x="865" y="780" font-size="9" fill="#888">AzureRM provider approx 3.100</text>

  <!-- Arrow marker -->
  <defs>
    <marker id="arrowBlue" markerWidth="8" markerHeight="8" refX="6" refY="3" orient="auto">
      <path d="M0,0 L0,6 L8,3 z" fill="#0078d4"/>
    </marker>
  </defs>
</svg>
